<svg width="1319" height="638" viewBox="0 0 1319 638" fill="none" xmlns="http://www.w3.org/2000/svg">
<path d="M491.419 195.713L364.077 196.568C358.949 135.888 320.49 105.976 248.701 105.976C217.934 105.976 194.004 111.958 176.911 123.923C159.818 135.888 150.417 152.981 150.417 175.201C150.417 182.039 152.126 188.876 153.835 194.858C156.399 199.986 160.673 205.114 166.655 210.242C173.492 215.37 179.475 218.788 185.457 222.207C192.294 225.625 201.695 229.044 213.66 232.462C225.625 235.881 236.736 239.3 246.991 242.718C257.247 245.282 270.921 248.701 288.869 253.828C307.671 258.102 323.054 262.375 336.729 266.648C396.554 283.741 441.85 305.107 470.907 330.746C499.965 356.385 514.494 393.135 514.494 440.995C514.494 475.181 507.657 505.948 493.128 531.587C479.454 557.226 459.797 577.737 435.867 593.121C411.937 608.505 385.443 619.615 356.385 626.452C327.328 633.289 296.561 637.562 264.084 637.562C182.039 637.562 117.086 617.906 70.9352 580.301C24.7846 542.697 0.854641 488.855 0 420.483H132.469C135.033 496.547 181.184 535.005 270.067 535.005C305.107 535.005 332.455 527.314 352.967 512.785C373.478 498.256 382.879 478.599 382.879 453.815C382.879 432.448 374.333 417.065 355.531 407.664C336.729 397.408 298.27 384.589 238.445 367.496C235.026 366.641 232.462 365.786 230.753 365.786C229.044 364.932 227.335 364.077 223.916 363.223C221.352 362.368 218.788 361.513 216.224 361.513C195.713 355.531 182.039 351.258 173.492 348.694C165.8 346.13 152.981 341.857 135.888 335.874C118.795 329.037 105.976 323.909 98.2837 318.781C89.7373 313.653 80.3363 305.962 68.3713 297.415C56.4063 288.014 48.7145 278.613 43.5867 268.357C38.4589 258.102 33.331 246.137 29.0578 231.608C24.7846 217.079 23.0753 201.695 23.0753 184.603C23.0753 129.051 44.4413 84.6095 87.1734 51.2785C129.905 18.8021 186.312 1.70926 257.247 1.70926C325.618 1.70926 381.17 17.9475 424.757 50.4238C467.489 82.9002 489.709 130.76 491.419 195.713Z" fill="black"/>
<path d="M725.09 0H829.356L596.893 637.562H491.773L725.09 0Z" fill="black"/>
<path d="M1295.22 195.713L1167.87 196.568C1162.75 135.888 1124.29 105.976 1052.5 105.976C1021.73 105.976 997.8 111.958 980.708 123.923C963.615 135.888 954.214 152.981 954.214 175.201C954.214 182.039 955.923 188.876 957.632 194.858C960.196 199.986 964.469 205.114 970.452 210.242C977.289 215.37 983.271 218.788 989.254 222.207C996.091 225.625 1005.49 229.044 1017.46 232.462C1029.42 235.881 1040.53 239.3 1050.79 242.718C1061.04 245.282 1074.72 248.701 1092.67 253.828C1111.47 258.102 1126.85 262.375 1140.53 266.648C1200.35 283.741 1245.65 305.107 1274.7 330.746C1303.76 356.385 1318.29 393.135 1318.29 440.995C1318.29 475.181 1311.45 505.948 1296.92 531.587C1283.25 557.226 1263.59 577.737 1239.66 593.121C1215.73 608.505 1189.24 619.615 1160.18 626.452C1131.12 633.289 1100.36 637.562 1067.88 637.562C985.835 637.562 920.883 617.906 874.732 580.301C828.581 542.697 804.651 488.855 803.797 420.483H936.266C938.83 496.547 984.981 535.005 1073.86 535.005C1108.9 535.005 1136.25 527.314 1156.76 512.785C1177.27 498.256 1186.68 478.599 1186.68 453.815C1186.68 432.448 1178.13 417.065 1159.33 407.664C1140.53 397.408 1102.07 384.589 1042.24 367.496C1038.82 366.641 1036.26 365.786 1034.55 365.786C1032.84 364.932 1031.13 364.077 1027.71 363.223C1025.15 362.368 1022.58 361.513 1020.02 361.513C999.51 355.531 985.835 351.258 977.289 348.694C969.597 346.13 956.778 341.857 939.685 335.874C922.592 329.037 909.772 323.909 902.081 318.781C893.534 313.653 884.133 305.962 872.168 297.415C860.203 288.014 852.511 278.613 847.383 268.357C842.256 258.102 837.128 246.137 832.855 231.608C828.581 217.079 826.872 201.695 826.872 184.603C826.872 129.051 848.238 84.6095 890.97 51.2785C933.702 18.8021 990.109 1.70926 1061.04 1.70926C1129.42 1.70926 1184.97 17.9475 1228.55 50.4238C1271.29 82.9002 1293.51 130.76 1295.22 195.713Z" fill="black"/>
</svg>
